<?xml version="1.0" encoding="utf-8"?>
<!-- Generator: Adobe Illustrator 25.0.0, SVG Export Plug-In . SVG Version: 6.00 Build 0)  -->
<svg version="1.1" id="Layer_1" xmlns="http://www.w3.org/2000/svg" xmlns:xlink="http://www.w3.org/1999/xlink" x="0px" y="0px"
	 viewBox="0 0 125 135" style="enable-background:new 0 0 125 135;" xml:space="preserve">
<style type="text/css">
	.st0{fill:#040505;}
	.st1{fill:none;stroke:#FFFFFF;stroke-width:2;stroke-miterlimit:10;}
	.st2{fill:#2F4696;}
	.st3{fill:#E42029;}
	.st4{fill:#FFFFFF;}
</style>
<circle class="st0" cx="62.99" cy="67.48" r="50.79"/>
<circle class="st1" cx="62.99" cy="67.48" r="45.85"/>
<g>
	<polygon class="st2" points="51.81,130.81 97.19,61.24 57.11,69.61 68.86,45.79 76.43,30.46 83.91,36.14 86.99,4.17 61.05,24 
		68.64,26.54 31.54,83.37 74.18,74.93 28.79,124.39 	"/>
	<polygon class="st3" points="86.82,4.15 60.84,24 68.7,26.67 48.32,57.43 67.24,49.43 76.61,30.62 83.93,36.16 86.99,4.17 	"/>
	<polygon class="st4" points="48.31,57.48 31.55,83.22 74.15,74.97 59.35,90.96 82.24,84.28 97.2,61.2 57.12,69.66 67.26,49.26 	"/>
</g>
</svg>
